<svg id="Layer_1" enable-background="new 0 0 512 512" height="512" viewBox="0 0 512 512" width="512" xmlns="http://www.w3.org/2000/svg"><g><g><path d="m486.01 322.865c-28.75-28.749-73.14-34.16-107.745-13.872l-19.201-19.201 11.055-11.054c8.773-8.773 8.772-23.047-.001-31.82s-23.048-8.771-31.821 0l-11.053 11.054-10.106-10.105c-8.375-8.729-23.445-8.729-31.82 0-8.73 8.374-8.729 23.446-.001 31.82l10.106 10.106-11.055 11.054c-8.772 8.773-8.772 23.047.001 31.821 8.774 8.772 23.047 8.771 31.821 0l11.054-11.054 19.2 19.2c-20.288 34.607-14.877 78.996 13.871 107.745 34.655 34.653 91.04 34.653 125.695 0 34.653-34.654 34.653-91.04 0-125.694zm-10.608 115.087c-65.042 61.584-161.775-18.834-113.222-93.959 2.039-2.979 1.668-6.988-.885-9.541l-28.748-28.749c-2.794-2.905-7.814-2.905-10.608 0l-16.357 16.357c-2.925 2.924-7.683 2.925-10.608 0-2.925-2.924-2.925-7.683 0-10.607l16.358-16.358c2.929-2.929 2.929-7.677 0-10.607l-15.409-15.409c-2.909-2.792-2.909-7.814.001-10.606 2.792-2.91 7.814-2.909 10.607 0l15.409 15.408c2.928 2.929 7.677 2.928 10.607 0l16.356-16.357c7.27-6.771 17.377 3.342 10.608 10.606l-16.358 16.358c-2.929 2.929-2.929 7.678 0 10.607l28.749 28.749c2.555 2.554 6.564 2.925 9.541.885 29.308-20.07 68.824-16.393 93.959 8.742 28.61 27.438 28.611 77.043 0 104.481z"/><path d="m464.797 344.078c-22.956-22.956-60.311-22.956-83.269 0-22.956 22.957-22.956 60.31.001 83.266 22.956 22.956 60.311 22.956 83.268 0 22.956-22.956 22.956-60.309 0-83.266zm-10.607 72.66c-17.111 17.108-44.948 17.107-62.055 0-27.621-27.506-7.513-75.141 31.027-74.884 38.539-.261 58.649 47.392 31.028 74.884z"/><path d="m216.578 289.792 10.105-10.105c8.73-8.374 8.729-23.446.001-31.82-8.375-8.729-23.445-8.729-31.82 0l-10.107 10.106-11.054-11.054c-8.773-8.773-23.048-8.771-31.821 0-8.772 8.773-8.773 23.047 0 31.82l11.055 11.054-19.201 19.201c-34.605-20.289-78.995-14.877-107.745 13.872-34.654 34.654-34.654 91.04 0 125.694 34.655 34.653 91.04 34.653 125.695 0 28.748-28.749 34.16-73.138 13.871-107.745l19.2-19.2 11.055 11.054c8.772 8.772 23.047 8.771 31.821 0 8.772-8.773 8.772-23.047 0-31.82zm.448 32.268c-2.925 2.924-7.683 2.924-10.608 0l-16.358-16.358c-2.794-2.905-7.814-2.905-10.608 0l-28.748 28.749c-2.553 2.553-2.924 6.562-.885 9.541 20.07 29.308 16.394 68.823-8.742 93.959-14.404 14.404-33.319 21.605-52.24 21.604-18.916-.002-37.839-7.203-52.24-21.604-28.609-27.441-28.611-77.041.001-104.48 25.213-25.216 64.783-28.744 93.958-8.742 2.977 2.039 6.985 1.668 9.541-.885l28.749-28.749c2.929-2.929 2.929-7.678 0-10.607l-16.358-16.358c-2.925-2.924-2.925-7.682-.001-10.606 2.925-2.924 7.683-2.925 10.608 0l16.357 16.357c2.929 2.929 7.678 2.929 10.607 0l15.41-15.409c2.792-2.91 7.814-2.909 10.607 0 2.909 2.792 2.909 7.814-.001 10.606l-15.408 15.409c-2.929 2.929-2.929 7.678 0 10.607l16.358 16.358c2.925 2.926 2.925 7.684.001 10.608z"/><path d="m47.203 344.078c-22.956 22.957-22.956 60.31 0 83.266 22.234 22.232 57.87 23.09 81.121 2.042 7.132-6.918-2.479-17.528-10.065-11.121-17.345 15.696-43.897 15.025-60.449-1.527-17.109-17.108-17.109-44.945 0-62.053 29.367-29.305 79.721-4.739 74.549 36.447-.507 4.111 2.415 7.855 6.525 8.361 4.117.504 7.856-2.415 8.361-6.526 2.24-18.168-3.874-35.987-16.775-48.888-22.955-22.957-60.309-22.957-83.267-.001z"/><path d="m314.093 187.93c-2.634-3.195-7.361-3.649-10.558-1.015-11.71 9.656-25.84 18.829-42.025 27.278-3.369 1.775-7.625 1.788-11.045-.013-146.466-73.105-74.279-200.322 1.141-150.153 2.623 1.898 6.166 1.898 8.789.001 7.243-5.237 19.161-11.48 34.806-11.48 28.767 0 51.3 25.665 51.3 58.43 0 12.17-3.414 31.11-19.676 52.232-2.527 3.282-1.915 7.991 1.367 10.518 3.283 2.528 7.992 1.915 10.518-1.367 58.086-72.081-4.827-168.274-82.71-123.443-94.099-53.69-174.509 97.709-12.502 178.547 7.642 4.092 17.348 4.095 24.979.013 17.082-8.918 32.088-18.671 44.601-28.989 3.195-2.636 3.65-7.363 1.015-10.559z"/></g></g></svg>