<svg id="Capa_1" enable-background="new 0 0 512 512" height="512" viewBox="0 0 512 512" width="512" xmlns="http://www.w3.org/2000/svg"><path d="m505.41 153.479-21.213-21.215c-1.7-1.7-3.628-3.08-5.694-4.129l.512-.512c8.771-8.772 8.771-23.047 0-31.82l-63.641-63.64c-8.773-8.771-23.046-8.771-31.819 0l-9.929 9.93c-8.978-7.387-20.397-11.325-32.417-10.751-.836-1.269-1.792-2.46-2.869-3.539l-21.215-21.212c-4.25-4.25-9.9-6.591-15.911-6.591-6.01 0-11.66 2.341-15.91 6.59l-35.739 35.739v-8.419c0-12.406-10.093-22.5-22.5-22.5h-30c-12.407 0-22.5 10.094-22.5 22.5v8.546l-35.863-35.865c-4.25-4.25-9.9-6.591-15.91-6.591s-11.661 2.341-15.91 6.59l-21.214 21.214c-7.221 7.222-8.498 18.172-3.829 26.713-2.34 1.093-4.524 2.605-6.442 4.523l-63.64 63.641c-8.307 8.308-9.454 22.367.479 32.3-7.259 3.736-12.236 11.307-12.236 20.019v30c0 12.406 10.093 22.5 22.5 22.5h14.213c-.832 2.347-1.285 4.872-1.285 7.5v30c0 9.147 5.486 17.037 13.342 20.551l-8.106 8.106c-8.773 8.773-8.773 23.047 0 31.82l21.213 21.214c8.773 8.772 23.047 8.771 31.82 0l27.136-27.136 21.884 71.618c3.838 12.561 5.784 25.588 5.784 38.72v22.931c0 7.892-4.274 15.107-11.433 19.301-7.665 4.49-13.506 11.565-16.447 19.92-1.608 4.566-.895 9.655 1.908 13.613 2.812 3.972 7.395 6.343 12.257 6.343h242.429c4.862 0 9.444-2.371 12.257-6.342 2.803-3.958 3.516-9.047 1.908-13.613-2.941-8.355-8.782-15.431-16.447-19.921-7.159-4.193-11.433-11.409-11.433-19.301v-22.931c0-13.132 1.946-26.159 5.784-38.72l12.298-40.247h5.928c12.406 0 22.5-10.094 22.5-22.5v-14.103l32.367 32.368c8.777 8.775 23.05 8.768 31.82-.001l21.212-21.213c8.794-8.792 8.795-23.026.001-31.82l-49.181-49.18c.248-.248 58.597-58.597 59.18-59.18 4.25-4.249 6.591-9.899 6.591-15.91s-2.341-11.66-6.59-15.908zm-161.917-107.196c17.921 0 32.5 14.579 32.5 32.5s-14.579 32.5-32.5 32.5c-17.92 0-32.5-14.579-32.5-32.5s14.58-32.5 32.5-32.5zm11.445 340.507c-4.272 13.981-6.438 28.483-6.438 43.103v22.931c0 13.077 7.223 25.432 18.851 32.244 4.607 2.698 8.116 6.945 9.864 11.933h-134.216l-108.229.025c1.764-5.013 5.273-9.26 9.88-11.958 11.627-6.813 18.851-19.167 18.851-32.244v-22.931c0-14.618-2.166-29.12-6.438-43.103l-30.407-99.51c-1.756-5.748-1.169-11.835 1.653-17.142 9.343-17.564 35.51-15.226 41.382 3.991l21.32 69.772c8.704 28.488 35.11 48.099 64.989 48.099 30.082 0 56.199-19.329 64.99-48.098l21.32-69.771c3.626-11.864 16.229-18.571 28.093-14.943 11.891 3.633 18.578 16.198 14.942 28.093zm-143.272-70.883 21.213 21.212c8.794 8.793 23.025 8.795 31.82.001l10.312-10.312v1.617c0 12.406 10.093 22.5 22.5 22.5h4.14c-23.087 39.496-82.817 32.697-96.294-11.406l-15.895-52.02h19.396c-5.732 8.547-5.073 20.527 2.808 28.408zm53.417-.385-10.991 10.991c-2.931 2.93-7.674 2.931-10.606-.001-22.922-22.922-23.41-22.375-23.41-26.516 0-3.912 1.891-4.997 9.651-12.757 6.162 14.56 19.39 25.417 35.356 28.283zm-24.09-46.739c0-17.921 14.58-32.5 32.5-32.5s32.5 14.579 32.5 32.5-14.58 32.5-32.5 32.5-32.5-14.579-32.5-32.5zm154.017 59.643c0 4.136-3.364 7.5-7.5 7.5h-1.344l8.844-28.944zm89.794-24.161c2.93 2.93 2.931 7.674-.001 10.606l-21.212 21.213c-2.926 2.924-7.685 2.924-10.606 0-12.46-12.459-42.058-42.058-51.818-51.818.919-9.43-1.788-18.875-7.708-26.542 18.331-18.333 17.85-18.379 20.558-19.066 3.464 3.464 7.166 7.905 14.959 9.318.772 1.443-3.168-2.705 55.828 56.289zm9.999-129.575-20.265 20.265c-2.326-4.865 1.159-.683-68.021-69.864-8.794-8.792-23.026-8.797-31.819 0l-21.215 21.213c-8.792 8.794-8.795 23.022 0 31.821l13.646 13.646c2.93 2.928 7.678 2.928 10.607 0 2.929-2.93 2.929-7.678 0-10.607-14.639-14.638-15.844-14.929-15.844-18.95 0-2.003.78-3.887 2.196-5.303 22.919-22.918 22.377-23.411 26.518-23.411 2.003 0 3.886.78 5.303 2.198 68.983 68.982 65.837 64.569 65.837 68.942 0 4.028-.123 3.229-23.409 26.516-2.935 2.931-7.675 2.934-10.608 0l-28.78-28.779c-2.928-2.928-7.677-2.929-10.606.001-2.929 2.929-2.929 7.677.001 10.606l14.557 14.557c-2.147 1.513-1.297.823-20.854 20.381-21.099-11.671-47.187-.734-54.082 21.823l-20.222 66.179h-10.233c-4.136 0-7.5-3.364-7.5-7.5v-15.109c18.073-6.725 30.983-24.147 30.983-44.533 0-26.191-21.309-47.5-47.5-47.5s-47.5 21.309-47.5 47.5c0 1.252.064 2.489.159 3.717h-41.275l-.841-2.753c-6.056-19.82-26.997-30.963-46.822-24.905-19.822 6.058-30.961 26.998-24.905 46.821l3.558 11.644-32.777 32.778c-2.924 2.927-7.683 2.925-10.607 0-22.886-22.886-23.41-22.375-23.41-26.517 0-4.079.842-3.948 19.012-22.118.74.082-.559.05 21.502.05 4.142 0 7.5-3.357 7.5-7.5s-3.358-7.5-7.5-7.5h-31.66c-4.136 0-7.5-3.364-7.5-7.5v-30c0-4.136 3.364-7.5 7.5-7.5h33.314c12.354 0 22.41-10.008 22.496-22.342 21.282-4.699 37.255-23.701 37.255-46.375 0-26.191-21.309-47.5-47.5-47.5s-47.5 21.309-47.5 47.5c0 24.561 18.738 44.827 42.668 47.256-.509 3.645-3.637 6.461-7.419 6.461h-33.313-35.428c-4.135 0-7.5-3.364-7.5-7.5v-30c0-4.136 3.365-7.5 7.5-7.5h5.363c6.656 0 10.025-8.081 5.303-12.804-11.369-11.368-13-12.087-13-16.105 0-2.004.78-3.887 2.197-5.303l63.64-63.642c2.104-2.105 5.293-2.723 8.027-1.661l34.961 34.961c2.928 2.929 7.677 2.93 10.606.001 2.929-2.93 2.929-7.678 0-10.607l-35.924-35.925-7.399-7.397c-2.924-2.925-2.924-7.684 0-10.607l21.213-21.214c1.417-1.416 3.3-2.196 5.303-2.196s3.886.78 5.303 2.197l48.668 48.669 14.971 14.971c2.931 2.93 2.931 7.675 0 10.605l-21.213 21.214c-2.923 2.926-7.682 2.925-10.606 0-2.93-2.928-7.677-2.929-10.607.001-2.929 2.929-2.928 7.678 0 10.606 8.774 8.772 23.046 8.772 31.819 0l21.213-21.214c8.794-8.795 8.794-23.025 0-31.82l-12.774-12.774v-23.545c0-4.136 3.364-7.5 7.5-7.5h30c4.136 0 7.5 3.364 7.5 7.5v26.525c0 6.658 8.082 10.024 12.803 5.304l48.542-48.543c1.417-1.416 3.3-2.196 5.303-2.196s3.887.78 5.304 2.197l18.037 18.036c-16.792 7.331-28.562 24.088-28.562 43.55 0 26.191 21.309 47.5 47.5 47.5s47.5-21.309 47.5-47.5c0-9.352-2.727-18.072-7.412-25.431l10.581-10.582c2.923-2.923 7.681-2.925 10.605 0l63.64 63.639c2.924 2.925 2.924 7.684.001 10.607l-12.817 12.816c-2.654 2.654-2.938 6.861-.664 9.848 2.273 2.985 6.403 3.831 9.669 1.979 2.924-1.659 6.623-1.161 8.994 1.211l21.214 21.215c2.932 2.93 2.933 7.675.001 10.605zm-391.31 16.593c-17.92 0-32.5-14.579-32.5-32.5s14.58-32.5 32.5-32.5 32.5 14.579 32.5 32.5-14.579 32.5-32.5 32.5z"/><path d="m77.175 367.965c-26.191 0-47.5 21.309-47.5 47.5s21.309 47.5 47.5 47.5 47.5-21.309 47.5-47.5-21.308-47.5-47.5-47.5zm0 80c-17.92 0-32.5-14.579-32.5-32.5s14.58-32.5 32.5-32.5 32.5 14.579 32.5 32.5-14.579 32.5-32.5 32.5z"/><path d="m211 206.283h90c12.407 0 22.5-10.094 22.5-22.5v-30c0-12.406-10.093-22.5-22.5-22.5h-90c-12.407 0-22.5 10.094-22.5 22.5v30c0 12.406 10.093 22.5 22.5 22.5zm-7.5-52.5c0-4.136 3.364-7.5 7.5-7.5h90c4.136 0 7.5 3.364 7.5 7.5v30c0 4.136-3.364 7.5-7.5 7.5h-90c-4.136 0-7.5-3.364-7.5-7.5z"/><path d="m489.5 377.965h-90c-12.406 0-22.5 10.094-22.5 22.5v30c0 12.406 10.094 22.5 22.5 22.5h90c12.406 0 22.5-10.094 22.5-22.5v-30c0-12.406-10.094-22.5-22.5-22.5zm7.5 52.5c0 4.136-3.364 7.5-7.5 7.5h-90c-4.136 0-7.5-3.364-7.5-7.5v-30c0-4.136 3.364-7.5 7.5-7.5h90c4.136 0 7.5 3.364 7.5 7.5z"/><path d="m192 410.542c-4.142 0-7.5 3.358-7.5 7.5v10c0 4.142 3.358 7.5 7.5 7.5s7.5-3.358 7.5-7.5v-10c0-4.142-3.358-7.5-7.5-7.5z"/><path d="m320 410.542c-4.142 0-7.5 3.358-7.5 7.5v10c0 4.142 3.358 7.5 7.5 7.5s7.5-3.358 7.5-7.5v-10c0-4.142-3.358-7.5-7.5-7.5z"/><path d="m275.735 424.276c-3.737-1.789-8.215-.206-10.001 3.531-1.666 3.484-5.291 5.735-9.234 5.735s-7.568-2.251-9.234-5.735c-1.787-3.737-6.266-5.317-10.001-3.531-3.737 1.787-5.318 6.265-3.531 10.001 4.144 8.666 13.08 14.265 22.766 14.265s18.623-5.599 22.766-14.265c1.787-3.736.206-8.214-3.531-10.001z"/></svg>